<svg width="20" height="22" viewBox="0 0 20 22" fill="none" xmlns="http://www.w3.org/2000/svg">
<path fill-rule="evenodd" clip-rule="evenodd" d="M9.99999 0.708496C6.70932 0.708496 4.04174 3.37615 4.04174 6.66683C4.04174 8.71375 5.0739 10.5196 6.64614 11.5923C3.00121 12.9275 0.375658 16.3767 0.254273 20.4552C0.240924 20.9037 0.593709 21.2781 1.04224 21.2915C1.49077 21.3048 1.8652 20.952 1.87855 20.5035C2.0087 16.1306 5.59508 12.6252 9.99989 12.6252C14.4047 12.6252 17.9911 16.1306 18.1212 20.5035C18.1346 20.952 18.509 21.3048 18.9575 21.2915C19.4061 21.2781 19.7589 20.9037 19.7455 20.4552C19.6241 16.3767 16.9986 12.9275 13.3538 11.5923C14.926 10.5196 15.9582 8.71378 15.9582 6.66683C15.9582 3.37615 13.2906 0.708496 9.99999 0.708496ZM5.66674 6.66683C5.66674 4.27358 7.60681 2.3335 9.99999 2.3335C12.3932 2.3335 14.3332 4.27358 14.3332 6.66683C14.3332 9.06008 12.3932 11.0002 9.99999 11.0002C7.60681 11.0002 5.66674 9.06008 5.66674 6.66683Z" fill="#333333"/>
</svg>
